<svg width="32" height="32" viewBox="0 0 32 32" fill="none" xmlns="http://www.w3.org/2000/svg">
<g id="la:shopping-bag">
<path id="Vector" d="M16.0005 3C13.2545 3 11.0005 5.254 11.0005 8V9H6.0625L6.0005 9.938L5.0005 27.938L4.9375 29H27.0625L27.0005 27.937L26.0005 9.937L25.9375 9H21.0005V8C21.0005 5.254 18.7465 3 16.0005 3ZM16.0005 5C16.7962 5 17.5592 5.31607 18.1218 5.87868C18.6844 6.44129 19.0005 7.20435 19.0005 8V9H13.0005V8C13.0005 7.20435 13.3166 6.44129 13.8792 5.87868C14.4418 5.31607 15.2049 5 16.0005 5ZM7.9375 11H11.0005V14H13.0005V11H19.0005V14H21.0005V11H24.0635L24.9385 27H7.0635L7.9375 11Z" fill="black"/>
</g>
</svg>
